# xmcd CD database file
#
# Track frame offsets:
#	150
#	2850
#	18307
#	29807
#	42567
#	57300
#	78005
#	91690
#	103032
#	118545
#	130245
#	141382
#	161502
#	179945
#	196220
#
# Disc length: 2682 seconds
#
# Revision: 0
# Processed by: cddbd v1.5.1PL0 Copyright (c) Steve Scherf et al.
# Submitted via: CDex 1.51
#
DISCID=cd0a780f
DTITLE=Apples In Stereo - Fun Trick Noisemaker
DYEAR=1995
DGENRE=Rock
TTITLE0=The Narrator
TTITLE1=Tidal Wave
TTITLE2=High Tide
TTITLE3=Green Machine
TTITLE4=Winter Must Be Cold
TTITLE5=She's Just Like Me - Taking Time
TTITLE6=Glowworm
TTITLE7=Dots 1-2-3
TTITLE8=Lucky Charm
TTITLE9=Innerspace
TTITLE10=Show The World
TTITLE11=Love You Alice - D
TTITLE12=Pine Away
TTITLE13=Shine (in your mind)
TTITLE14=Thank You Very Much
EXTD=YEAR: 1995
EXTT0=
EXTT1=
EXTT2=
EXTT3=
EXTT4=
EXTT5=
EXTT6=
EXTT7=
EXTT8=
EXTT9=
EXTT10=
EXTT11=
EXTT12=
EXTT13=
EXTT14=
PLAYORDER=
